<mxfile host="app.diagrams.net" modified="2023-03-28T19:19:18.279Z" agent="Mozilla/5.0 (Windows NT 10.0; Win64; x64) AppleWebKit/537.36 (KHTML, like Gecko) Chrome/111.0.0.0 Safari/537.36" version="21.1.1" etag="RcTwXE8PHujft4I6CD4t" type="github">
  <diagram name="Page-1" id="ihvqecI2_4nkTstzMAUD">
    <mxGraphModel>
      <root>
        <mxCell id="0" />
        <mxCell id="1" parent="0" />
      </root>
    </mxGraphModel>
  </diagram>
</mxfile>
